# WaveFront *.obj file (generated by Autodesk ATF)

mtllib prehan_ss_pate_g.mtl

g Solide1

v -6.000000 -1.000000 14.500000
v -6.000000 -1.000000 16.500000
v -6.000000 1.000000 14.500000
v -6.000000 1.000000 16.500000
v -5.000000 -10.000000 -1.500000
v -5.000000 -10.000000 1.500000
v -5.000000 10.000000 -1.500000
v -5.000000 10.000000 1.500000
v -3.576923 -1.000000 5.500000
v -3.576923 1.000000 5.500000
v -3.408455 -1.049247 4.874262
v -3.408455 1.049247 4.874262
v -3.244136 -1.195774 4.263932
v -3.244136 1.195774 4.263932
v -3.088010 -1.435974 3.684038
v -3.088010 1.435974 3.684038
v -2.943923 -1.763932 3.148859
v -2.943923 1.763932 3.148859
v -2.815424 -2.171573 2.671573
v -2.815424 2.171573 2.671573
v -2.705674 -2.648859 2.263932
v -2.705674 2.648859 2.263932
v -2.617378 -3.184038 1.935974
v -2.617378 3.184038 1.935974
v -2.552708 -3.763932 1.695774
v -2.552708 3.763932 1.695774
v -2.513259 -4.374262 1.549247
v -2.513259 4.374262 1.549247
v -2.500000 -5.000000 1.500000
v -2.500000 5.000000 1.500000
v 0.233333 -1.000000 5.500000
v 0.233333 1.000000 5.500000
v 0.524670 -1.033178 4.985877
v 0.524670 1.033178 4.985877
v 0.811173 -1.132161 4.480283
v 0.811173 1.132161 4.480283
v 1.088090 -1.295308 3.991605
v 1.088090 1.295308 3.991605
v 1.350829 -1.519911 3.527950
v 1.350829 1.519911 3.527950
v 1.640431 -1.809514 3.087367
v 1.640431 1.809514 3.087367
v 1.985466 -2.154548 2.688701
v 1.985466 2.154548 2.688701
v 2.379937 -2.549019 2.338878
v 2.379937 2.549019 2.338878
v 2.816991 -2.986073 2.043976
v 2.816991 2.986073 2.043976
v 3.000000 -10.000000 -1.500000
v 3.000000 -10.000000 1.500000
v 3.000000 10.000000 -1.500000
v 3.000000 10.000000 1.500000
v 3.289035 -3.458118 1.809119
v 3.289035 3.458118 1.809119
v 3.445042 -9.949856 -1.500000
v 3.445042 -9.949856 1.500000
v 3.445042 9.949856 -1.500000
v 3.445042 9.949856 1.500000
v 3.787868 -3.956950 1.638388
v 3.787868 3.956950 1.638388
v 3.867767 -9.801938 -1.500000
v 3.867767 -9.801938 1.500000
v 3.867767 9.801938 -1.500000
v 3.867767 9.801938 1.500000
v 4.246980 -9.563663 -1.500000
v 4.246980 -9.563663 1.500000
v 4.246980 9.563663 -1.500000
v 4.246980 9.563663 1.500000
v 4.304822 -4.473905 1.534748
v 4.304822 4.473905 1.534748
v 4.563663 -9.246979 -1.500000
v 4.563663 -9.246979 1.500000
v 4.563663 9.246979 -1.500000
v 4.563663 9.246979 1.500000
v 4.801938 -8.867767 -1.500000
v 4.801938 -8.867767 1.500000
v 4.801938 8.867767 -1.500000
v 4.801938 8.867767 1.500000
v 4.830917 -5.000000 1.500000
v 4.830917 5.000000 1.500000
v 4.949856 -8.445042 -1.500000
v 4.949856 -8.445042 1.500000
v 4.949856 8.445042 -1.500000
v 4.949856 8.445042 1.500000
v 5.000000 -8.000000 -1.500000
v 5.000000 -8.000000 1.500000
v 5.000000 8.000000 -1.500000
v 5.000000 8.000000 1.500000
vt -0.300000 0.000000 0.000000
vt -0.300000 -2.000000 0.000000
vt -0.000000 -2.000000 0.000000
vt -0.000000 0.000000 0.000000
vt 0.300000 -1.000000 0.000000
vt 0.300000 -0.200000 0.000000
vt -0.000000 -0.200000 0.000000
vt -0.000000 -1.000000 0.000000
vt 0.300000 -1.800000 0.000000
vt 0.300000 -0.200000 0.000000
vt -0.000000 -0.200000 0.000000
vt -0.000000 -1.800000 0.000000
vt -0.000000 -1.000000 0.000000
vt -0.000000 -0.200000 0.000000
vt -0.300000 -0.200000 0.000000
vt -0.300000 -1.000000 0.000000
vt 0.500000 -0.800000 0.000000
vt 0.500000 0.800000 0.000000
vt 0.494986 0.844504 0.000000
vt 0.480194 0.886777 0.000000
vt 0.456366 0.924698 0.000000
vt 0.424698 0.956366 0.000000
vt 0.386777 0.980194 0.000000
vt 0.344504 0.994986 0.000000
vt 0.300000 1.000000 0.000000
vt -0.500000 1.000000 0.000000
vt -0.500000 -1.000000 0.000000
vt 0.300000 -1.000000 0.000000
vt 0.344504 -0.994986 0.000000
vt 0.386777 -0.980194 0.000000
vt 0.424698 -0.956366 0.000000
vt 0.456366 -0.924698 0.000000
vt 0.480194 -0.886777 0.000000
vt 0.494986 -0.844504 0.000000
vt 0.483092 -0.500000 0.000000
vt -0.250000 -0.500000 0.000000
vt -0.250000 0.500000 0.000000
vt 0.483092 0.500000 0.000000
vt 0.500000 1.000000 0.000000
vt -0.300000 1.000000 0.000000
vt -0.344504 0.994986 0.000000
vt -0.386777 0.980194 0.000000
vt -0.424698 0.956366 0.000000
vt -0.456366 0.924698 0.000000
vt -0.480194 0.886777 0.000000
vt -0.494986 0.844504 0.000000
vt -0.500000 0.800000 0.000000
vt -0.500000 -0.800000 0.000000
vt -0.494986 -0.844504 0.000000
vt -0.480194 -0.886777 0.000000
vt -0.456366 -0.924698 0.000000
vt -0.424698 -0.956366 0.000000
vt -0.386777 -0.980194 0.000000
vt -0.344504 -0.994986 0.000000
vt -0.300000 -1.000000 0.000000
vt 0.500000 -1.000000 0.000000
vt -0.459758 0.000000 0.000000
vt -0.400665 -0.003318 0.000000
vt -0.342553 -0.013216 0.000000
vt -0.286384 -0.029531 0.000000
vt -0.233092 -0.051991 0.000000
vt -0.233092 0.251991 0.000000
vt -0.286384 0.229531 0.000000
vt -0.342553 0.213216 0.000000
vt -0.400665 0.203318 0.000000
vt -0.459758 0.200000 0.000000
vt -1.724094 0.200000 0.000000
vt -1.724094 0.000000 0.000000
vt -0.000000 0.200000 0.000000
vt -0.200000 0.200000 0.000000
vt -0.200000 0.000000 0.000000
vt -0.000000 0.000000 0.000000
vt -0.000000 0.200000 0.000000
vt -0.932048 0.200000 0.000000
vt -0.996850 0.204925 0.000000
vt -1.060056 0.219577 0.000000
vt -1.120110 0.243597 0.000000
vt -1.175534 0.276393 0.000000
vt -1.224962 0.317157 0.000000
vt -1.267178 0.364886 0.000000
vt -1.301141 0.418404 0.000000
vt -1.326017 0.476393 0.000000
vt -1.341191 0.537426 0.000000
vt -1.346291 0.600000 0.000000
vt -1.346291 -0.400000 0.000000
vt -1.341191 -0.337426 0.000000
vt -1.326017 -0.276393 0.000000
vt -1.301141 -0.218404 0.000000
vt -1.267178 -0.164886 0.000000
vt -1.224962 -0.117157 0.000000
vt -1.175534 -0.076393 0.000000
vt -1.120110 -0.043597 0.000000
vt -1.060056 -0.019577 0.000000
vt -0.996850 -0.004925 0.000000
vt -0.932048 0.000000 0.000000
vt -0.000000 0.000000 0.000000
vt -1.600000 -0.600000 0.000000
vt -0.700000 -0.357692 0.000000
vt -0.700000 0.023333 0.000000
vt -1.800000 -0.600000 0.000000
vt 1.800000 -0.600000 0.000000
vt 0.700000 0.023333 0.000000
vt 0.700000 -0.357692 0.000000
vt 1.600000 -0.600000 0.000000
vt -0.000000 -0.314159 0.000000
vt -0.000000 -0.269279 0.000000
vt -0.000000 -0.224399 0.000000
vt -0.000000 -0.179520 0.000000
vt -0.000000 -0.134640 0.000000
vt -0.000000 -0.089760 0.000000
vt -0.000000 -0.044880 0.000000
vt -0.000000 0.000000 0.000000
vt -0.300000 0.000000 0.000000
vt -0.300000 -0.044880 0.000000
vt -0.300000 -0.089760 0.000000
vt -0.300000 -0.134640 0.000000
vt -0.300000 -0.179520 0.000000
vt -0.300000 -0.224399 0.000000
vt -0.300000 -0.269279 0.000000
vt -0.300000 -0.314159 0.000000
vt -0.000000 0.000000 0.000000
vt -0.000000 0.044880 0.000000
vt -0.000000 0.089760 0.000000
vt -0.000000 0.134640 0.000000
vt -0.000000 0.179520 0.000000
vt -0.000000 0.224399 0.000000
vt -0.000000 0.269279 0.000000
vt -0.000000 0.314159 0.000000
vt -0.300000 0.314159 0.000000
vt -0.300000 0.269279 0.000000
vt -0.300000 0.224399 0.000000
vt -0.300000 0.179520 0.000000
vt -0.300000 0.134640 0.000000
vt -0.300000 0.089760 0.000000
vt -0.300000 0.044880 0.000000
vt -0.300000 0.000000 0.000000
vt 0.357692 0.628319 0.000000
vt -0.023333 0.628319 0.000000
vt -0.052467 0.576764 0.000000
vt -0.081117 0.525209 0.000000
vt -0.108809 0.473654 0.000000
vt -0.135083 0.422099 0.000000
vt -0.164043 0.369337 0.000000
vt -0.198547 0.316574 0.000000
vt -0.237994 0.263812 0.000000
vt -0.281699 0.211049 0.000000
vt -0.328904 0.158287 0.000000
vt -0.378787 0.105525 0.000000
vt -0.430482 0.052762 0.000000
vt -0.483092 0.000000 0.000000
vt 0.250000 0.000000 0.000000
vt 0.251326 0.062832 0.000000
vt 0.255271 0.125664 0.000000
vt 0.261738 0.188496 0.000000
vt 0.270567 0.251327 0.000000
vt 0.281542 0.314159 0.000000
vt 0.294392 0.376991 0.000000
vt 0.308801 0.439823 0.000000
vt 0.324414 0.502655 0.000000
vt 0.340846 0.565487 0.000000
vt -0.251991 0.834538 0.000000
vt 0.051991 0.834538 0.000000
vt 0.080951 0.887300 0.000000
vt 0.115455 0.940063 0.000000
vt 0.154902 0.992825 0.000000
vt 0.198607 1.045588 0.000000
vt 0.245812 1.098350 0.000000
vt 0.295695 1.151112 0.000000
vt 0.347391 1.203875 0.000000
vt 0.400000 1.256637 0.000000
vt -0.600000 1.256637 0.000000
vt -0.547391 1.203875 0.000000
vt -0.495695 1.151112 0.000000
vt -0.445812 1.098350 0.000000
vt -0.398607 1.045588 0.000000
vt -0.354902 0.992825 0.000000
vt -0.315455 0.940063 0.000000
vt -0.280951 0.887300 0.000000
vt -0.357692 -0.628319 0.000000
vt -0.340846 -0.691150 0.000000
vt -0.324414 -0.753982 0.000000
vt -0.308801 -0.816814 0.000000
vt -0.294392 -0.879646 0.000000
vt -0.281542 -0.942478 0.000000
vt -0.270567 -1.005310 0.000000
vt -0.261738 -1.068141 0.000000
vt -0.255271 -1.130973 0.000000
vt -0.251326 -1.193805 0.000000
vt -0.250000 -1.256637 0.000000
vt 0.483092 -1.256637 0.000000
vt 0.430482 -1.203875 0.000000
vt 0.378787 -1.151112 0.000000
vt 0.328904 -1.098350 0.000000
vt 0.281699 -1.045588 0.000000
vt 0.237994 -0.992825 0.000000
vt 0.198547 -0.940063 0.000000
vt 0.164043 -0.887300 0.000000
vt 0.135083 -0.834538 0.000000
vt 0.108809 -0.782983 0.000000
vt 0.081117 -0.731428 0.000000
vt 0.052467 -0.679873 0.000000
vt 0.023333 -0.628319 0.000000
vn -0.100000 0.000000 0.000000
vn -0.100000 0.000000 0.000000
vn -0.100000 0.000000 0.000000
vn -0.100000 0.000000 0.000000
vn 0.000000 -0.100000 0.000000
vn 0.000000 -0.100000 0.000000
vn 0.000000 -0.100000 0.000000
vn 0.000000 -0.100000 0.000000
vn 0.100000 0.000000 0.000000
vn 0.100000 0.000000 0.000000
vn 0.100000 0.000000 0.000000
vn 0.100000 0.000000 0.000000
vn 0.000000 0.100000 0.000000
vn 0.000000 0.100000 0.000000
vn 0.000000 0.100000 0.000000
vn 0.000000 0.100000 0.000000
vn 0.000000 0.000000 0.100000
vn 0.000000 0.000000 0.100000
vn 0.000000 0.000000 0.100000
vn 0.000000 0.000000 0.100000
vn 0.000000 0.000000 0.100000
vn 0.000000 0.000000 0.100000
vn 0.000000 0.000000 0.100000
vn 0.000000 0.000000 0.100000
vn 0.000000 0.000000 0.100000
vn 0.000000 0.000000 0.100000
vn 0.000000 0.000000 0.100000
vn 0.000000 0.000000 0.100000
vn 0.000000 0.000000 0.100000
vn 0.000000 0.000000 0.100000
vn 0.000000 0.000000 0.100000
vn 0.000000 0.000000 0.100000
vn 0.000000 0.000000 0.100000
vn 0.000000 0.000000 0.100000
vn 0.000000 0.000000 0.100000
vn 0.000000 0.000000 0.100000
vn 0.000000 0.000000 0.100000
vn 0.000000 0.000000 0.100000
vn 0.000000 0.000000 -0.100000
vn 0.000000 0.000000 -0.100000
vn 0.000000 0.000000 -0.100000
vn 0.000000 0.000000 -0.100000
vn 0.000000 0.000000 -0.100000
vn 0.000000 0.000000 -0.100000
vn 0.000000 0.000000 -0.100000
vn 0.000000 0.000000 -0.100000
vn 0.000000 0.000000 -0.100000
vn 0.000000 0.000000 -0.100000
vn 0.000000 0.000000 -0.100000
vn 0.000000 0.000000 -0.100000
vn 0.000000 0.000000 -0.100000
vn 0.000000 0.000000 -0.100000
vn 0.000000 0.000000 -0.100000
vn 0.000000 0.000000 -0.100000
vn 0.000000 0.000000 -0.100000
vn 0.000000 0.000000 -0.100000
vn 0.087002 0.000000 0.049301
vn 0.087002 0.000000 0.049301
vn 0.087002 0.000000 0.049301
vn 0.087002 0.000000 0.049301
vn 0.087002 0.000000 0.049301
vn 0.087002 0.000000 0.049301
vn 0.087002 0.000000 0.049301
vn 0.087002 0.000000 0.049301
vn 0.087002 0.000000 0.049301
vn 0.087002 0.000000 0.049301
vn 0.087002 0.000000 0.049301
vn 0.087002 0.000000 0.049301
vn -0.100000 0.000000 0.000000
vn -0.100000 0.000000 0.000000
vn -0.100000 0.000000 0.000000
vn -0.100000 0.000000 0.000000
vn -0.096562 0.000000 -0.025997
vn -0.096562 0.000000 -0.025997
vn -0.096562 0.000000 -0.025997
vn -0.096562 0.000000 -0.025997
vn -0.096562 0.000000 -0.025997
vn -0.096562 0.000000 -0.025997
vn -0.096562 0.000000 -0.025997
vn -0.096562 0.000000 -0.025997
vn -0.096562 0.000000 -0.025997
vn -0.096562 0.000000 -0.025997
vn -0.096562 0.000000 -0.025997
vn -0.096562 0.000000 -0.025997
vn -0.096562 0.000000 -0.025997
vn -0.096562 0.000000 -0.025997
vn -0.096562 0.000000 -0.025997
vn -0.096562 0.000000 -0.025997
vn -0.096562 0.000000 -0.025997
vn -0.096562 0.000000 -0.025997
vn -0.096562 0.000000 -0.025997
vn -0.096562 0.000000 -0.025997
vn -0.096562 0.000000 -0.025997
vn -0.096562 0.000000 -0.025997
vn -0.096562 0.000000 -0.025997
vn -0.096562 0.000000 -0.025997
vn 0.000000 -0.100000 0.000000
vn 0.000000 -0.100000 0.000000
vn 0.000000 -0.100000 0.000000
vn 0.000000 -0.100000 0.000000
vn 0.000000 0.100000 0.000000
vn 0.000000 0.100000 0.000000
vn 0.000000 0.100000 0.000000
vn 0.000000 0.100000 0.000000
vn 0.000000 0.100000 0.000000
vn 0.022252 0.097493 0.000000
vn 0.043388 0.090097 0.000000
vn 0.062349 0.078183 0.000000
vn 0.078183 0.062349 0.000000
vn 0.090097 0.043388 0.000000
vn 0.097493 0.022252 0.000000
vn 0.100000 0.000000 0.000000
vn 0.100000 0.000000 0.000000
vn 0.097493 0.022252 0.000000
vn 0.090097 0.043388 0.000000
vn 0.078183 0.062349 0.000000
vn 0.062349 0.078183 0.000000
vn 0.043388 0.090097 0.000000
vn 0.022252 0.097493 0.000000
vn 0.000000 0.100000 0.000000
vn 0.100000 0.000000 0.000000
vn 0.097493 -0.022252 0.000000
vn 0.090097 -0.043388 0.000000
vn 0.078183 -0.062349 0.000000
vn 0.062349 -0.078183 0.000000
vn 0.043388 -0.090097 0.000000
vn 0.022252 -0.097493 0.000000
vn 0.000000 -0.100000 0.000000
vn 0.000000 -0.100000 0.000000
vn 0.022252 -0.097493 0.000000
vn 0.043388 -0.090097 0.000000
vn 0.062349 -0.078183 0.000000
vn 0.078183 -0.062349 0.000000
vn 0.090097 -0.043388 0.000000
vn 0.097493 -0.022252 0.000000
vn 0.100000 0.000000 0.000000
vn 0.000000 0.100000 0.000000
vn 0.000000 0.100000 0.000000
vn 0.000000 0.099171 0.012853
vn 0.000000 0.096696 0.025493
vn 0.000000 0.092617 0.037710
vn 0.000000 0.087002 0.049301
vn 0.000000 0.079762 0.060316
vn 0.000000 0.071136 0.070282
vn 0.000000 0.061275 0.079028
vn 0.000000 0.050348 0.086401
vn 0.000000 0.038547 0.092272
vn 0.000000 0.026076 0.096540
vn 0.000000 0.013152 0.099131
vn 0.000000 0.000000 0.100000
vn 0.000000 0.000000 0.100000
vn 0.000000 0.015643 0.098769
vn 0.000000 0.030902 0.095106
vn 0.000000 0.045399 0.089101
vn 0.000000 0.058779 0.080902
vn 0.000000 0.070711 0.070711
vn 0.000000 0.080902 0.058779
vn 0.000000 0.089101 0.045399
vn 0.000000 0.095106 0.030902
vn 0.000000 0.098769 0.015643
vn 0.087002 0.000000 0.049301
vn 0.087002 0.000000 0.049301
vn 0.079762 0.000000 0.060316
vn 0.071136 0.000000 0.070282
vn 0.061275 0.000000 0.079028
vn 0.050348 0.000000 0.086401
vn 0.038547 0.000000 0.092272
vn 0.026076 0.000000 0.096540
vn 0.013152 0.000000 0.099131
vn 0.000000 0.000000 0.100000
vn 0.000000 0.000000 0.100000
vn 0.013152 0.000000 0.099131
vn 0.026076 0.000000 0.096540
vn 0.038547 0.000000 0.092272
vn 0.050348 0.000000 0.086401
vn 0.061275 0.000000 0.079028
vn 0.071136 0.000000 0.070282
vn 0.079762 0.000000 0.060316
vn 0.000000 -0.100000 0.000000
vn 0.000000 -0.098769 0.015643
vn 0.000000 -0.095106 0.030902
vn 0.000000 -0.089101 0.045399
vn 0.000000 -0.080902 0.058779
vn 0.000000 -0.070711 0.070711
vn 0.000000 -0.058779 0.080902
vn 0.000000 -0.045399 0.089101
vn 0.000000 -0.030902 0.095106
vn 0.000000 -0.015643 0.098769
vn 0.000000 0.000000 0.100000
vn 0.000000 0.000000 0.100000
vn 0.000000 -0.013152 0.099131
vn 0.000000 -0.026076 0.096540
vn 0.000000 -0.038547 0.092272
vn 0.000000 -0.050348 0.086401
vn 0.000000 -0.061275 0.079028
vn 0.000000 -0.071136 0.070282
vn 0.000000 -0.079762 0.060316
vn 0.000000 -0.087002 0.049301
vn 0.000000 -0.092617 0.037710
vn 0.000000 -0.096696 0.025493
vn 0.000000 -0.099171 0.012853
vn 0.000000 -0.100000 0.000000
usemtl 202,209,238
f 5/2/2 6/3/3 7/1/1
f 7/1/1 6/3/3 8/4/4
f 49/6/6 50/7/7 5/5/5
f 5/5/5 50/7/7 6/8/8
f 87/10/10 88/11/11 85/9/9
f 85/9/9 88/11/11 86/12/12
f 52/14/14 51/15/15 8/13/13
f 8/13/13 51/15/15 7/16/16
f 88/18/18 80/38/38 86/17/17
f 86/17/17 80/38/38 79/35/35
f 86/17/17 79/35/35 50/28/28
f 50/28/28 79/35/35 29/36/36
f 50/28/28 29/36/36 6/27/27
f 6/27/27 29/36/36 30/37/37
f 6/27/27 30/37/37 8/26/26
f 8/26/26 30/37/37 52/25/25
f 52/25/25 30/37/37 80/38/38
f 52/25/25 80/38/38 88/18/18
f 84/19/19 78/20/20 88/18/18
f 88/18/18 78/20/20 74/21/21
f 88/18/18 74/21/21 68/22/22
f 68/22/22 64/23/23 88/18/18
f 88/18/18 64/23/23 58/24/24
f 88/18/18 58/24/24 52/25/25
f 50/28/28 56/29/29 86/17/17
f 86/17/17 56/29/29 62/30/30
f 86/17/17 62/30/30 66/31/31
f 66/31/31 72/32/32 86/17/17
f 86/17/17 72/32/32 76/33/33
f 86/17/17 76/33/33 82/34/34
f 7/39/39 51/40/40 5/56/56
f 5/56/56 51/40/40 87/47/47
f 5/56/56 87/47/47 49/55/55
f 49/55/55 87/47/47 85/48/48
f 49/55/55 85/48/48 55/54/54
f 55/54/54 85/48/48 61/53/53
f 61/53/53 85/48/48 65/52/52
f 65/52/52 85/48/48 71/51/51
f 71/51/51 85/48/48 75/50/50
f 75/50/50 85/48/48 81/49/49
f 51/40/40 57/41/41 87/47/47
f 87/47/47 57/41/41 63/42/42
f 87/47/47 63/42/42 67/43/43
f 67/43/43 73/44/44 87/47/47
f 87/47/47 73/44/44 77/45/45
f 87/47/47 77/45/45 83/46/46
f 33/58/58 32/66/66 31/57/57
f 31/57/57 32/66/66 4/67/67
f 31/57/57 4/67/67 2/68/68
f 32/66/66 33/58/58 34/65/65
f 34/65/65 33/58/58 35/59/59
f 34/65/65 35/59/59 36/64/64
f 36/64/64 35/59/59 37/60/60
f 36/64/64 37/60/60 38/63/63
f 38/63/63 37/60/60 39/61/61
f 38/63/63 39/61/61 40/62/62
f 4/69/69 3/70/70 2/72/72
f 2/72/72 3/70/70 1/71/71
f 3/73/73 10/74/74 1/96/96
f 1/96/96 10/74/74 9/95/95
f 9/95/95 10/74/74 11/94/94
f 11/94/94 10/74/74 12/75/75
f 11/94/94 12/75/75 13/93/93
f 13/93/93 12/75/75 14/76/76
f 13/93/93 14/76/76 15/92/92
f 15/92/92 14/76/76 16/77/77
f 15/92/92 16/77/77 17/91/91
f 17/91/91 16/77/77 18/78/78
f 17/91/91 18/78/78 19/90/90
f 19/90/90 18/78/78 20/79/79
f 19/90/90 20/79/79 21/89/89
f 21/89/89 20/79/79 22/80/80
f 21/89/89 22/80/80 23/88/88
f 23/88/88 22/80/80 24/81/81
f 23/88/88 24/81/81 25/87/87
f 25/87/87 24/81/81 26/82/82
f 25/87/87 26/82/82 27/86/86
f 27/86/86 26/82/82 28/83/83
f 27/86/86 28/83/83 29/85/85
f 29/85/85 28/83/83 30/84/84
f 9/98/98 31/99/99 1/97/97
f 1/97/97 31/99/99 2/100/100
f 4/101/101 32/102/102 3/104/104
f 3/104/104 32/102/102 10/103/103
f 52/105/105 58/106/106 51/120/120
f 51/120/120 58/106/106 57/119/119
f 57/119/119 58/106/106 64/107/107
f 57/119/119 64/107/107 63/118/118
f 63/118/118 64/107/107 68/108/108
f 63/118/118 68/108/108 67/117/117
f 67/117/117 68/108/108 74/109/109
f 67/117/117 74/109/109 73/116/116
f 73/116/116 74/109/109 78/110/110
f 73/116/116 78/110/110 77/115/115
f 77/115/115 78/110/110 84/111/111
f 77/115/115 84/111/111 83/114/114
f 83/114/114 84/111/111 87/113/113
f 87/113/113 84/111/111 88/112/112
f 85/136/136 86/121/121 81/135/135
f 81/135/135 86/121/121 82/122/122
f 81/135/135 82/122/122 76/123/123
f 81/135/135 76/123/123 75/134/134
f 75/134/134 76/123/123 72/124/124
f 75/134/134 72/124/124 71/133/133
f 71/133/133 72/124/124 66/125/125
f 71/133/133 66/125/125 65/132/132
f 65/132/132 66/125/125 62/126/126
f 65/132/132 62/126/126 61/131/131
f 61/131/131 62/126/126 56/127/127
f 61/131/131 56/127/127 55/130/130
f 55/130/130 56/127/127 50/128/128
f 55/130/130 50/128/128 49/129/129
f 32/138/138 34/139/139 10/137/137
f 10/137/137 34/139/139 12/160/160
f 12/160/160 34/139/139 36/140/140
f 12/160/160 36/140/140 14/159/159
f 14/159/159 36/140/140 38/141/141
f 14/159/159 38/141/141 16/158/158
f 16/158/158 38/141/141 40/142/142
f 16/158/158 40/142/142 18/157/157
f 18/157/157 40/142/142 42/143/143
f 18/157/157 42/143/143 20/156/156
f 20/156/156 42/143/143 44/144/144
f 20/156/156 44/144/144 46/145/145
f 20/156/156 46/145/145 22/155/155
f 22/155/155 46/145/145 48/146/146
f 22/155/155 48/146/146 24/154/154
f 24/154/154 48/146/146 54/147/147
f 24/154/154 54/147/147 26/153/153
f 26/153/153 54/147/147 60/148/148
f 26/153/153 60/148/148 28/152/152
f 28/152/152 60/148/148 70/149/149
f 28/152/152 70/149/149 30/151/151
f 30/151/151 70/149/149 80/150/150
f 39/162/162 41/163/163 40/161/161
f 40/161/161 41/163/163 42/178/178
f 42/178/178 41/163/163 43/164/164
f 42/178/178 43/164/164 44/177/177
f 44/177/177 43/164/164 45/165/165
f 44/177/177 45/165/165 46/176/176
f 46/176/176 45/165/165 48/175/175
f 48/175/175 45/165/165 47/166/166
f 48/175/175 47/166/166 53/167/167
f 48/175/175 53/167/167 54/174/174
f 54/174/174 53/167/167 59/168/168
f 54/174/174 59/168/168 60/173/173
f 60/173/173 59/168/168 69/169/169
f 60/173/173 69/169/169 70/172/172
f 70/172/172 69/169/169 80/171/171
f 80/171/171 69/169/169 79/170/170
f 31/202/202 9/179/179 33/201/201
f 33/201/201 9/179/179 11/180/180
f 33/201/201 11/180/180 35/200/200
f 35/200/200 11/180/180 13/181/181
f 35/200/200 13/181/181 37/199/199
f 37/199/199 13/181/181 15/182/182
f 37/199/199 15/182/182 39/198/198
f 39/198/198 15/182/182 17/183/183
f 39/198/198 17/183/183 41/197/197
f 41/197/197 17/183/183 19/184/184
f 41/197/197 19/184/184 43/196/196
f 43/196/196 19/184/184 45/195/195
f 45/195/195 19/184/184 21/185/185
f 45/195/195 21/185/185 47/194/194
f 47/194/194 21/185/185 23/186/186
f 47/194/194 23/186/186 53/193/193
f 53/193/193 23/186/186 25/187/187
f 53/193/193 25/187/187 59/192/192
f 59/192/192 25/187/187 27/188/188
f 59/192/192 27/188/188 69/191/191
f 69/191/191 27/188/188 29/189/189
f 69/191/191 29/189/189 79/190/190

# 88 vertices
# 202 texture params
# 202 normals
# 172 facets

# 1 groups
