# WaveFront *.obj file (generated by Autodesk ATF)

mtllib prehan_ss_pate_d.mtl

g Solide1

v -5.000000 -8.000000 -1.500000
v -5.000000 -8.000000 1.500000
v -5.000000 8.000000 -1.500000
v -5.000000 8.000000 1.500000
v -4.949856 -8.445042 -1.500000
v -4.949856 -8.445042 1.500000
v -4.949856 8.445042 -1.500000
v -4.949856 8.445042 1.500000
v -4.830917 -5.000000 1.500000
v -4.830917 5.000000 1.500000
v -4.801938 -8.867767 -1.500000
v -4.801938 -8.867767 1.500000
v -4.801938 8.867767 -1.500000
v -4.801938 8.867767 1.500000
v -4.563663 -9.246979 -1.500000
v -4.563663 -9.246979 1.500000
v -4.563663 9.246979 -1.500000
v -4.563663 9.246979 1.500000
v -4.304822 -4.473905 1.534748
v -4.304822 4.473905 1.534748
v -4.246980 -9.563663 -1.500000
v -4.246980 -9.563663 1.500000
v -4.246980 9.563663 -1.500000
v -4.246980 9.563663 1.500000
v -3.867767 -9.801938 -1.500000
v -3.867767 -9.801938 1.500000
v -3.867767 9.801938 -1.500000
v -3.867767 9.801938 1.500000
v -3.787868 -3.956950 1.638388
v -3.787868 3.956950 1.638388
v -3.445042 -9.949856 -1.500000
v -3.445042 -9.949856 1.500000
v -3.445042 9.949856 -1.500000
v -3.445042 9.949856 1.500000
v -3.289035 -3.458118 1.809119
v -3.289035 3.458118 1.809119
v -3.000000 -10.000000 -1.500000
v -3.000000 -10.000000 1.500000
v -3.000000 10.000000 -1.500000
v -3.000000 10.000000 1.500000
v -2.816991 -2.986073 2.043976
v -2.816991 2.986073 2.043976
v -2.379937 -2.549019 2.338878
v -2.379937 2.549019 2.338878
v -1.985466 -2.154548 2.688701
v -1.985466 2.154548 2.688701
v -1.640431 -1.809514 3.087367
v -1.640431 1.809514 3.087367
v -1.350829 -1.519911 3.527950
v -1.350829 1.519911 3.527950
v -1.088090 -1.295308 3.991605
v -1.088090 1.295308 3.991605
v -0.811173 -1.132161 4.480283
v -0.811173 1.132161 4.480283
v -0.524670 -1.033178 4.985877
v -0.524670 1.033178 4.985877
v -0.233333 -1.000000 5.500000
v -0.233333 1.000000 5.500000
v 2.500000 -5.000000 1.500000
v 2.500000 5.000000 1.500000
v 2.513259 -4.374262 1.549247
v 2.513259 4.374262 1.549247
v 2.552708 -3.763932 1.695774
v 2.552708 3.763932 1.695774
v 2.617378 -3.184038 1.935974
v 2.617378 3.184038 1.935974
v 2.705674 -2.648859 2.263932
v 2.705674 2.648859 2.263932
v 2.815424 -2.171573 2.671573
v 2.815424 2.171573 2.671573
v 2.943923 -1.763932 3.148859
v 2.943923 1.763932 3.148859
v 3.088010 -1.435974 3.684038
v 3.088010 1.435974 3.684038
v 3.244136 -1.195774 4.263932
v 3.244136 1.195774 4.263932
v 3.408455 -1.049247 4.874262
v 3.408455 1.049247 4.874262
v 3.576923 -1.000000 5.500000
v 3.576923 1.000000 5.500000
v 5.000000 -10.000000 -1.500000
v 5.000000 -10.000000 1.500000
v 5.000000 10.000000 -1.500000
v 5.000000 10.000000 1.500000
v 6.000000 -1.000000 14.500000
v 6.000000 -1.000000 16.500000
v 6.000000 1.000000 14.500000
v 6.000000 1.000000 16.500000
vt 0.300000 0.000000 0.000000
vt 0.300000 2.000000 0.000000
vt -0.000000 2.000000 0.000000
vt -0.000000 0.000000 0.000000
vt -0.300000 1.000000 0.000000
vt -0.300000 0.200000 0.000000
vt -0.000000 0.200000 0.000000
vt -0.000000 1.000000 0.000000
vt -0.300000 1.800000 0.000000
vt -0.300000 0.200000 0.000000
vt -0.000000 0.200000 0.000000
vt -0.000000 1.800000 0.000000
vt -0.000000 1.000000 0.000000
vt -0.000000 0.200000 0.000000
vt 0.300000 0.200000 0.000000
vt 0.300000 1.000000 0.000000
vt -0.500000 0.800000 0.000000
vt -0.500000 -0.800000 0.000000
vt -0.494986 -0.844504 0.000000
vt -0.480194 -0.886777 0.000000
vt -0.456366 -0.924698 0.000000
vt -0.424698 -0.956366 0.000000
vt -0.386777 -0.980194 0.000000
vt -0.344504 -0.994986 0.000000
vt -0.300000 -1.000000 0.000000
vt 0.500000 -1.000000 0.000000
vt 0.500000 1.000000 0.000000
vt -0.300000 1.000000 0.000000
vt -0.344504 0.994986 0.000000
vt -0.386777 0.980194 0.000000
vt -0.424698 0.956366 0.000000
vt -0.456366 0.924698 0.000000
vt -0.480194 0.886777 0.000000
vt -0.494986 0.844504 0.000000
vt -0.483092 0.500000 0.000000
vt 0.250000 0.500000 0.000000
vt 0.250000 -0.500000 0.000000
vt -0.483092 -0.500000 0.000000
vt -0.500000 -1.000000 0.000000
vt 0.300000 -1.000000 0.000000
vt 0.344504 -0.994986 0.000000
vt 0.386777 -0.980194 0.000000
vt 0.424698 -0.956366 0.000000
vt 0.456366 -0.924698 0.000000
vt 0.480194 -0.886777 0.000000
vt 0.494986 -0.844504 0.000000
vt 0.500000 -0.800000 0.000000
vt 0.500000 0.800000 0.000000
vt 0.494986 0.844504 0.000000
vt 0.480194 0.886777 0.000000
vt 0.456366 0.924698 0.000000
vt 0.424698 0.956366 0.000000
vt 0.386777 0.980194 0.000000
vt 0.344504 0.994986 0.000000
vt 0.300000 1.000000 0.000000
vt -0.500000 1.000000 0.000000
vt 0.459758 0.000000 0.000000
vt 0.400665 0.003318 0.000000
vt 0.342553 0.013216 0.000000
vt 0.286384 0.029531 0.000000
vt 0.233092 0.051991 0.000000
vt 0.233092 -0.251991 0.000000
vt 0.286384 -0.229531 0.000000
vt 0.342553 -0.213216 0.000000
vt 0.400665 -0.203318 0.000000
vt 0.459758 -0.200000 0.000000
vt 1.724094 -0.200000 0.000000
vt 1.724094 0.000000 0.000000
vt -0.000000 -0.200000 0.000000
vt 0.200000 -0.200000 0.000000
vt 0.200000 0.000000 0.000000
vt -0.000000 0.000000 0.000000
vt -0.000000 -0.200000 0.000000
vt 0.932048 -0.200000 0.000000
vt 0.996850 -0.204925 0.000000
vt 1.060056 -0.219577 0.000000
vt 1.120110 -0.243597 0.000000
vt 1.175534 -0.276393 0.000000
vt 1.224962 -0.317157 0.000000
vt 1.267178 -0.364886 0.000000
vt 1.301141 -0.418404 0.000000
vt 1.326017 -0.476393 0.000000
vt 1.341191 -0.537426 0.000000
vt 1.346291 -0.600000 0.000000
vt 1.346291 0.400000 0.000000
vt 1.341191 0.337426 0.000000
vt 1.326017 0.276393 0.000000
vt 1.301141 0.218404 0.000000
vt 1.267178 0.164886 0.000000
vt 1.224962 0.117157 0.000000
vt 1.175534 0.076393 0.000000
vt 1.120110 0.043597 0.000000
vt 1.060056 0.019577 0.000000
vt 0.996850 0.004925 0.000000
vt 0.932048 0.000000 0.000000
vt -0.000000 0.000000 0.000000
vt 1.600000 0.600000 0.000000
vt 0.700000 0.357692 0.000000
vt 0.700000 -0.023333 0.000000
vt 1.800000 0.600000 0.000000
vt -1.800000 0.600000 0.000000
vt -0.700000 -0.023333 0.000000
vt -0.700000 0.357692 0.000000
vt -1.600000 0.600000 0.000000
vt -0.000000 -0.314159 0.000000
vt -0.000000 -0.269279 0.000000
vt -0.000000 -0.224399 0.000000
vt -0.000000 -0.179520 0.000000
vt -0.000000 -0.134640 0.000000
vt -0.000000 -0.089760 0.000000
vt -0.000000 -0.044880 0.000000
vt -0.000000 0.000000 0.000000
vt -0.300000 0.000000 0.000000
vt -0.300000 -0.044880 0.000000
vt -0.300000 -0.089760 0.000000
vt -0.300000 -0.134640 0.000000
vt -0.300000 -0.179520 0.000000
vt -0.300000 -0.224399 0.000000
vt -0.300000 -0.269279 0.000000
vt -0.300000 -0.314159 0.000000
vt -0.000000 0.000000 0.000000
vt -0.000000 0.044880 0.000000
vt -0.000000 0.089760 0.000000
vt -0.000000 0.134640 0.000000
vt -0.000000 0.179520 0.000000
vt -0.000000 0.224399 0.000000
vt -0.000000 0.269279 0.000000
vt -0.000000 0.314159 0.000000
vt -0.300000 0.314159 0.000000
vt -0.300000 0.269279 0.000000
vt -0.300000 0.224399 0.000000
vt -0.300000 0.179520 0.000000
vt -0.300000 0.134640 0.000000
vt -0.300000 0.089760 0.000000
vt -0.300000 0.044880 0.000000
vt -0.300000 0.000000 0.000000
vt 0.357692 0.628319 0.000000
vt -0.023333 0.628319 0.000000
vt -0.052467 0.576764 0.000000
vt -0.081117 0.525209 0.000000
vt -0.108809 0.473654 0.000000
vt -0.135083 0.422099 0.000000
vt -0.164043 0.369337 0.000000
vt -0.198547 0.316574 0.000000
vt -0.237994 0.263812 0.000000
vt -0.281699 0.211049 0.000000
vt -0.328904 0.158287 0.000000
vt -0.378787 0.105525 0.000000
vt -0.430482 0.052762 0.000000
vt -0.483092 0.000000 0.000000
vt 0.250000 0.000000 0.000000
vt 0.251326 0.062832 0.000000
vt 0.255271 0.125664 0.000000
vt 0.261738 0.188496 0.000000
vt 0.270567 0.251327 0.000000
vt 0.281542 0.314159 0.000000
vt 0.294392 0.376991 0.000000
vt 0.308801 0.439823 0.000000
vt 0.324414 0.502655 0.000000
vt 0.340846 0.565487 0.000000
vt -0.251991 0.834538 0.000000
vt 0.051991 0.834538 0.000000
vt 0.080951 0.887300 0.000000
vt 0.115455 0.940063 0.000000
vt 0.154902 0.992825 0.000000
vt 0.198607 1.045588 0.000000
vt 0.245812 1.098350 0.000000
vt 0.295695 1.151112 0.000000
vt 0.347391 1.203875 0.000000
vt 0.400000 1.256637 0.000000
vt -0.600000 1.256637 0.000000
vt -0.547391 1.203875 0.000000
vt -0.495695 1.151112 0.000000
vt -0.445812 1.098350 0.000000
vt -0.398607 1.045588 0.000000
vt -0.354902 0.992825 0.000000
vt -0.315455 0.940063 0.000000
vt -0.280951 0.887300 0.000000
vt -0.357692 -0.628319 0.000000
vt -0.340846 -0.691150 0.000000
vt -0.324414 -0.753982 0.000000
vt -0.308801 -0.816814 0.000000
vt -0.294392 -0.879646 0.000000
vt -0.281542 -0.942478 0.000000
vt -0.270567 -1.005310 0.000000
vt -0.261738 -1.068141 0.000000
vt -0.255271 -1.130973 0.000000
vt -0.251326 -1.193805 0.000000
vt -0.250000 -1.256637 0.000000
vt 0.483092 -1.256637 0.000000
vt 0.430482 -1.203875 0.000000
vt 0.378787 -1.151112 0.000000
vt 0.328904 -1.098350 0.000000
vt 0.281699 -1.045588 0.000000
vt 0.237994 -0.992825 0.000000
vt 0.198547 -0.940063 0.000000
vt 0.164043 -0.887300 0.000000
vt 0.135083 -0.834538 0.000000
vt 0.108809 -0.782983 0.000000
vt 0.081117 -0.731428 0.000000
vt 0.052467 -0.679873 0.000000
vt 0.023333 -0.628319 0.000000
vn 0.100000 0.000000 0.000000
vn 0.100000 0.000000 0.000000
vn 0.100000 0.000000 0.000000
vn 0.100000 0.000000 0.000000
vn 0.000000 0.100000 0.000000
vn 0.000000 0.100000 0.000000
vn 0.000000 0.100000 0.000000
vn 0.000000 0.100000 0.000000
vn -0.100000 0.000000 0.000000
vn -0.100000 0.000000 0.000000
vn -0.100000 0.000000 0.000000
vn -0.100000 0.000000 0.000000
vn 0.000000 -0.100000 0.000000
vn 0.000000 -0.100000 0.000000
vn 0.000000 -0.100000 0.000000
vn 0.000000 -0.100000 0.000000
vn 0.000000 0.000000 0.100000
vn 0.000000 0.000000 0.100000
vn 0.000000 0.000000 0.100000
vn 0.000000 0.000000 0.100000
vn 0.000000 0.000000 0.100000
vn 0.000000 0.000000 0.100000
vn 0.000000 0.000000 0.100000
vn 0.000000 0.000000 0.100000
vn 0.000000 0.000000 0.100000
vn 0.000000 0.000000 0.100000
vn 0.000000 0.000000 0.100000
vn 0.000000 0.000000 0.100000
vn 0.000000 0.000000 0.100000
vn 0.000000 0.000000 0.100000
vn 0.000000 0.000000 0.100000
vn 0.000000 0.000000 0.100000
vn 0.000000 0.000000 0.100000
vn 0.000000 0.000000 0.100000
vn 0.000000 0.000000 0.100000
vn 0.000000 0.000000 0.100000
vn 0.000000 0.000000 0.100000
vn 0.000000 0.000000 0.100000
vn 0.000000 0.000000 -0.100000
vn 0.000000 0.000000 -0.100000
vn 0.000000 0.000000 -0.100000
vn 0.000000 0.000000 -0.100000
vn 0.000000 0.000000 -0.100000
vn 0.000000 0.000000 -0.100000
vn 0.000000 0.000000 -0.100000
vn 0.000000 0.000000 -0.100000
vn 0.000000 0.000000 -0.100000
vn 0.000000 0.000000 -0.100000
vn 0.000000 0.000000 -0.100000
vn 0.000000 0.000000 -0.100000
vn 0.000000 0.000000 -0.100000
vn 0.000000 0.000000 -0.100000
vn 0.000000 0.000000 -0.100000
vn 0.000000 0.000000 -0.100000
vn 0.000000 0.000000 -0.100000
vn 0.000000 0.000000 -0.100000
vn -0.087002 0.000000 0.049301
vn -0.087002 0.000000 0.049301
vn -0.087002 0.000000 0.049301
vn -0.087002 0.000000 0.049301
vn -0.087002 0.000000 0.049301
vn -0.087002 0.000000 0.049301
vn -0.087002 0.000000 0.049301
vn -0.087002 0.000000 0.049301
vn -0.087002 0.000000 0.049301
vn -0.087002 0.000000 0.049301
vn -0.087002 0.000000 0.049301
vn -0.087002 0.000000 0.049301
vn 0.100000 0.000000 0.000000
vn 0.100000 0.000000 0.000000
vn 0.100000 0.000000 0.000000
vn 0.100000 0.000000 0.000000
vn 0.096562 0.000000 -0.025997
vn 0.096562 0.000000 -0.025997
vn 0.096562 0.000000 -0.025997
vn 0.096562 0.000000 -0.025997
vn 0.096562 0.000000 -0.025997
vn 0.096562 0.000000 -0.025997
vn 0.096562 0.000000 -0.025997
vn 0.096562 0.000000 -0.025997
vn 0.096562 0.000000 -0.025997
vn 0.096562 0.000000 -0.025997
vn 0.096562 0.000000 -0.025997
vn 0.096562 0.000000 -0.025997
vn 0.096562 0.000000 -0.025997
vn 0.096562 0.000000 -0.025997
vn 0.096562 0.000000 -0.025997
vn 0.096562 0.000000 -0.025997
vn 0.096562 0.000000 -0.025997
vn 0.096562 0.000000 -0.025997
vn 0.096562 0.000000 -0.025997
vn 0.096562 0.000000 -0.025997
vn 0.096562 0.000000 -0.025997
vn 0.096562 0.000000 -0.025997
vn 0.096562 0.000000 -0.025997
vn 0.096562 0.000000 -0.025997
vn 0.000000 0.100000 0.000000
vn 0.000000 0.100000 0.000000
vn 0.000000 0.100000 0.000000
vn 0.000000 0.100000 0.000000
vn 0.000000 -0.100000 0.000000
vn 0.000000 -0.100000 0.000000
vn 0.000000 -0.100000 0.000000
vn 0.000000 -0.100000 0.000000
vn 0.000000 -0.100000 0.000000
vn -0.022252 -0.097493 0.000000
vn -0.043388 -0.090097 0.000000
vn -0.062349 -0.078183 0.000000
vn -0.078183 -0.062349 0.000000
vn -0.090097 -0.043388 0.000000
vn -0.097493 -0.022252 0.000000
vn -0.100000 0.000000 0.000000
vn -0.100000 0.000000 0.000000
vn -0.097493 -0.022252 0.000000
vn -0.090097 -0.043388 0.000000
vn -0.078183 -0.062349 0.000000
vn -0.062349 -0.078183 0.000000
vn -0.043388 -0.090097 0.000000
vn -0.022252 -0.097493 0.000000
vn 0.000000 -0.100000 0.000000
vn -0.100000 0.000000 0.000000
vn -0.097493 0.022252 0.000000
vn -0.090097 0.043388 0.000000
vn -0.078183 0.062349 0.000000
vn -0.062349 0.078183 0.000000
vn -0.043388 0.090097 0.000000
vn -0.022252 0.097493 0.000000
vn 0.000000 0.100000 0.000000
vn 0.000000 0.100000 0.000000
vn -0.022252 0.097493 0.000000
vn -0.043388 0.090097 0.000000
vn -0.062349 0.078183 0.000000
vn -0.078183 0.062349 0.000000
vn -0.090097 0.043388 0.000000
vn -0.097493 0.022252 0.000000
vn -0.100000 0.000000 0.000000
vn 0.000000 -0.100000 0.000000
vn 0.000000 -0.100000 0.000000
vn 0.000000 -0.099171 0.012853
vn 0.000000 -0.096696 0.025493
vn 0.000000 -0.092617 0.037710
vn 0.000000 -0.087002 0.049301
vn 0.000000 -0.079762 0.060316
vn 0.000000 -0.071136 0.070282
vn 0.000000 -0.061275 0.079028
vn 0.000000 -0.050348 0.086401
vn 0.000000 -0.038547 0.092272
vn 0.000000 -0.026076 0.096540
vn 0.000000 -0.013152 0.099131
vn 0.000000 0.000000 0.100000
vn 0.000000 0.000000 0.100000
vn 0.000000 -0.015643 0.098769
vn 0.000000 -0.030902 0.095106
vn 0.000000 -0.045399 0.089101
vn 0.000000 -0.058779 0.080902
vn 0.000000 -0.070711 0.070711
vn 0.000000 -0.080902 0.058779
vn 0.000000 -0.089101 0.045399
vn 0.000000 -0.095106 0.030902
vn 0.000000 -0.098769 0.015643
vn -0.087002 0.000000 0.049301
vn -0.087002 0.000000 0.049301
vn -0.079762 0.000000 0.060316
vn -0.071136 0.000000 0.070282
vn -0.061275 0.000000 0.079028
vn -0.050348 0.000000 0.086401
vn -0.038547 0.000000 0.092272
vn -0.026076 0.000000 0.096540
vn -0.013152 0.000000 0.099131
vn 0.000000 0.000000 0.100000
vn 0.000000 0.000000 0.100000
vn -0.013152 0.000000 0.099131
vn -0.026076 0.000000 0.096540
vn -0.038547 0.000000 0.092272
vn -0.050348 0.000000 0.086401
vn -0.061275 0.000000 0.079028
vn -0.071136 0.000000 0.070282
vn -0.079762 0.000000 0.060316
vn 0.000000 0.100000 0.000000
vn 0.000000 0.098769 0.015643
vn 0.000000 0.095106 0.030902
vn 0.000000 0.089101 0.045399
vn 0.000000 0.080902 0.058779
vn 0.000000 0.070711 0.070711
vn 0.000000 0.058779 0.080902
vn 0.000000 0.045399 0.089101
vn 0.000000 0.030902 0.095106
vn 0.000000 0.015643 0.098769
vn 0.000000 0.000000 0.100000
vn 0.000000 0.000000 0.100000
vn 0.000000 0.013152 0.099131
vn 0.000000 0.026076 0.096540
vn 0.000000 0.038547 0.092272
vn 0.000000 0.050348 0.086401
vn 0.000000 0.061275 0.079028
vn 0.000000 0.071136 0.070282
vn 0.000000 0.079762 0.060316
vn 0.000000 0.087002 0.049301
vn 0.000000 0.092617 0.037710
vn 0.000000 0.096696 0.025493
vn 0.000000 0.099171 0.012853
vn 0.000000 0.100000 0.000000
usemtl 202,209,238
f 83/2/2 84/3/3 81/1/1
f 81/1/1 84/3/3 82/4/4
f 39/6/6 40/7/7 83/5/5
f 83/5/5 40/7/7 84/8/8
f 1/10/10 2/11/11 3/9/9
f 3/9/9 2/11/11 4/12/12
f 38/14/14 37/15/15 82/13/13
f 82/13/13 37/15/15 81/16/16
f 2/18/18 10/35/35 4/17/17
f 4/17/17 10/35/35 40/28/28
f 4/17/17 40/28/28 34/29/29
f 6/19/19 12/20/20 2/18/18
f 2/18/18 12/20/20 16/21/21
f 2/18/18 16/21/21 22/22/22
f 22/22/22 26/23/23 2/18/18
f 2/18/18 26/23/23 32/24/24
f 2/18/18 32/24/24 38/25/25
f 82/26/26 59/37/37 38/25/25
f 38/25/25 59/37/37 9/38/38
f 38/25/25 9/38/38 2/18/18
f 2/18/18 9/38/38 10/35/35
f 59/37/37 82/26/26 60/36/36
f 60/36/36 82/26/26 84/27/27
f 60/36/36 84/27/27 40/28/28
f 34/29/29 28/30/30 4/17/17
f 4/17/17 28/30/30 24/31/31
f 4/17/17 24/31/31 18/32/32
f 18/32/32 14/33/33 4/17/17
f 4/17/17 14/33/33 8/34/34
f 10/35/35 60/36/36 40/28/28
f 37/40/40 3/48/48 81/39/39
f 81/39/39 3/48/48 39/55/55
f 81/39/39 39/55/55 83/56/56
f 3/48/48 37/40/40 1/47/47
f 1/47/47 37/40/40 31/41/41
f 1/47/47 31/41/41 25/42/42
f 25/42/42 21/43/43 1/47/47
f 1/47/47 21/43/43 15/44/44
f 1/47/47 15/44/44 11/45/45
f 11/45/45 5/46/46 1/47/47
f 7/49/49 13/50/50 3/48/48
f 3/48/48 13/50/50 17/51/51
f 3/48/48 17/51/51 23/52/52
f 23/52/52 27/53/53 3/48/48
f 3/48/48 27/53/53 33/54/54
f 3/48/48 33/54/54 39/55/55
f 56/58/58 55/65/65 58/57/57
f 58/57/57 55/65/65 57/66/66
f 58/57/57 57/66/66 86/67/67
f 55/65/65 56/58/58 53/64/64
f 53/64/64 56/58/58 54/59/59
f 53/64/64 54/59/59 51/63/63
f 51/63/63 54/59/59 52/60/60
f 51/63/63 52/60/60 49/62/62
f 49/62/62 52/60/60 50/61/61
f 86/67/67 88/68/68 58/57/57
f 86/69/69 85/70/70 88/72/72
f 88/72/72 85/70/70 87/71/71
f 85/73/73 79/74/74 87/96/96
f 87/96/96 79/74/74 80/95/95
f 80/95/95 79/74/74 77/75/75
f 80/95/95 77/75/75 78/94/94
f 78/94/94 77/75/75 75/76/76
f 78/94/94 75/76/76 76/93/93
f 76/93/93 75/76/76 73/77/77
f 76/93/93 73/77/77 74/92/92
f 74/92/92 73/77/77 71/78/78
f 74/92/92 71/78/78 72/91/91
f 72/91/91 71/78/78 69/79/79
f 72/91/91 69/79/79 70/90/90
f 70/90/90 69/79/79 67/80/80
f 70/90/90 67/80/80 68/89/89
f 68/89/89 67/80/80 65/81/81
f 68/89/89 65/81/81 66/88/88
f 66/88/88 65/81/81 63/82/82
f 66/88/88 63/82/82 64/87/87
f 64/87/87 63/82/82 61/83/83
f 64/87/87 61/83/83 62/86/86
f 62/86/86 61/83/83 59/84/84
f 62/86/86 59/84/84 60/85/85
f 80/98/98 58/99/99 87/97/97
f 87/97/97 58/99/99 88/100/100
f 86/101/101 57/102/102 85/104/104
f 85/104/104 57/102/102 79/103/103
f 38/105/105 32/106/106 37/120/120
f 37/120/120 32/106/106 31/119/119
f 31/119/119 32/106/106 26/107/107
f 31/119/119 26/107/107 25/118/118
f 25/118/118 26/107/107 22/108/108
f 25/118/118 22/108/108 21/117/117
f 21/117/117 22/108/108 16/109/109
f 21/117/117 16/109/109 15/116/116
f 15/116/116 16/109/109 12/110/110
f 15/116/116 12/110/110 11/115/115
f 11/115/115 12/110/110 6/111/111
f 11/115/115 6/111/111 5/114/114
f 5/114/114 6/111/111 1/113/113
f 1/113/113 6/111/111 2/112/112
f 3/136/136 4/121/121 7/135/135
f 7/135/135 4/121/121 8/122/122
f 7/135/135 8/122/122 14/123/123
f 7/135/135 14/123/123 13/134/134
f 13/134/134 14/123/123 18/124/124
f 13/134/134 18/124/124 17/133/133
f 17/133/133 18/124/124 24/125/125
f 17/133/133 24/125/125 23/132/132
f 23/132/132 24/125/125 28/126/126
f 23/132/132 28/126/126 27/131/131
f 27/131/131 28/126/126 34/127/127
f 27/131/131 34/127/127 33/130/130
f 33/130/130 34/127/127 40/128/128
f 33/130/130 40/128/128 39/129/129
f 57/138/138 55/139/139 79/137/137
f 79/137/137 55/139/139 77/160/160
f 77/160/160 55/139/139 53/140/140
f 77/160/160 53/140/140 75/159/159
f 75/159/159 53/140/140 51/141/141
f 75/159/159 51/141/141 73/158/158
f 73/158/158 51/141/141 49/142/142
f 73/158/158 49/142/142 71/157/157
f 71/157/157 49/142/142 47/143/143
f 71/157/157 47/143/143 69/156/156
f 69/156/156 47/143/143 45/144/144
f 69/156/156 45/144/144 43/145/145
f 69/156/156 43/145/145 67/155/155
f 67/155/155 43/145/145 41/146/146
f 67/155/155 41/146/146 65/154/154
f 65/154/154 41/146/146 35/147/147
f 65/154/154 35/147/147 63/153/153
f 63/153/153 35/147/147 29/148/148
f 63/153/153 29/148/148 61/152/152
f 61/152/152 29/148/148 19/149/149
f 61/152/152 19/149/149 59/151/151
f 59/151/151 19/149/149 9/150/150
f 50/162/162 48/163/163 49/161/161
f 49/161/161 48/163/163 47/178/178
f 47/178/178 48/163/163 46/164/164
f 47/178/178 46/164/164 45/177/177
f 45/177/177 46/164/164 44/165/165
f 45/177/177 44/165/165 43/176/176
f 43/176/176 44/165/165 41/175/175
f 41/175/175 44/165/165 42/166/166
f 41/175/175 42/166/166 36/167/167
f 41/175/175 36/167/167 35/174/174
f 35/174/174 36/167/167 30/168/168
f 35/174/174 30/168/168 29/173/173
f 29/173/173 30/168/168 20/169/169
f 29/173/173 20/169/169 19/172/172
f 19/172/172 20/169/169 9/171/171
f 9/171/171 20/169/169 10/170/170
f 58/202/202 80/179/179 56/201/201
f 56/201/201 80/179/179 78/180/180
f 56/201/201 78/180/180 54/200/200
f 54/200/200 78/180/180 76/181/181
f 54/200/200 76/181/181 52/199/199
f 52/199/199 76/181/181 74/182/182
f 52/199/199 74/182/182 50/198/198
f 50/198/198 74/182/182 72/183/183
f 50/198/198 72/183/183 48/197/197
f 48/197/197 72/183/183 70/184/184
f 48/197/197 70/184/184 46/196/196
f 46/196/196 70/184/184 44/195/195
f 44/195/195 70/184/184 68/185/185
f 44/195/195 68/185/185 42/194/194
f 42/194/194 68/185/185 66/186/186
f 42/194/194 66/186/186 36/193/193
f 36/193/193 66/186/186 64/187/187
f 36/193/193 64/187/187 30/192/192
f 30/192/192 64/187/187 62/188/188
f 30/192/192 62/188/188 20/191/191
f 20/191/191 62/188/188 60/189/189
f 20/191/191 60/189/189 10/190/190

# 88 vertices
# 202 texture params
# 202 normals
# 172 facets

# 1 groups
